<svg width="42" height="42" viewBox="0 0 42 42" fill="none" xmlns="http://www.w3.org/2000/svg">
<g id="Group 61">
<path id="Vector" d="M21 42C32.5701 42 41.9495 32.598 41.9495 21C41.9495 9.40202 32.5701 0 21 0C9.42989 0 0.0504761 9.40202 0.0504761 21C0.0504761 32.598 9.42989 42 21 42Z" fill="#F41B3B"/>
<path id="Vector_2" d="M29.302 19.5125L17.9543 12.95C17.4306 12.6 16.7323 12.6 16.2085 12.95C15.6848 13.3 15.3356 13.825 15.3356 14.4375V27.475C15.3356 28.0875 15.6848 28.7 16.2085 28.9625C16.4704 29.1375 16.8196 29.225 17.0814 29.225C17.3433 29.225 17.6925 29.1375 17.9543 28.9625L29.2147 22.4C29.7384 22.05 30.0876 21.525 30.0876 20.9125C30.0876 20.3 29.8257 19.775 29.302 19.5125Z" fill="white" fill-opacity="0.87"/>
</g>
</svg>
