<svg width="15" height="16" viewBox="0 0 15 16" fill="none" xmlns="http://www.w3.org/2000/svg">
<g id="Group 63">
<path id="Vector (Stroke)" fill-rule="evenodd" clip-rule="evenodd" d="M14.2594 9.19751C14.6676 9.19751 14.9985 9.52845 14.9985 9.93669L14.9985 12.8934C14.9985 13.4815 14.7649 14.0456 14.349 14.4614C13.9332 14.8773 13.3691 15.111 12.781 15.111L2.43247 15.111C1.84434 15.111 1.2803 14.8773 0.864433 14.4614C0.448564 14.0456 0.214931 13.4815 0.214931 12.8934L0.214931 9.93669C0.214931 9.52845 0.545874 9.19751 0.954111 9.19751C1.36235 9.19751 1.69329 9.52845 1.69329 9.93669L1.69329 12.8934C1.69329 13.0895 1.77117 13.2775 1.90979 13.4161C2.04842 13.5547 2.23643 13.6326 2.43247 13.6326L12.781 13.6326C12.977 13.6326 13.1651 13.5547 13.3037 13.4161C13.4423 13.2775 13.5202 13.0895 13.5202 12.8934L13.5202 9.93669C13.5202 9.52845 13.8511 9.19751 14.2594 9.19751Z" fill="#1884F7"/>
<path id="Vector (Stroke)_2" fill-rule="evenodd" clip-rule="evenodd" d="M11.824 5.71772C12.1127 6.00639 12.1127 6.47441 11.824 6.76308L8.12813 10.459C7.83946 10.7476 7.37143 10.7476 7.08277 10.459L3.38687 6.76308C3.0982 6.47441 3.0982 6.00639 3.38687 5.71772C3.67554 5.42905 4.14356 5.42905 4.43223 5.71772L7.60545 8.89094L10.7787 5.71772C11.0673 5.42905 11.5354 5.42905 11.824 5.71772Z" fill="#1884F7"/>
<path id="Vector (Stroke)_3" fill-rule="evenodd" clip-rule="evenodd" d="M7.60506 0.328125C8.0133 0.328125 8.34424 0.659067 8.34424 1.06731L8.34424 9.93747C8.34424 10.3457 8.0133 10.6766 7.60506 10.6766C7.19682 10.6766 6.86588 10.3457 6.86588 9.93747L6.86588 1.06731C6.86588 0.659067 7.19682 0.328125 7.60506 0.328125Z" fill="#1884F7"/>
</g>
</svg>
